<svg version="1.1" id="Layer_1" xmlns="http://www.w3.org/2000/svg" xmlns:xlink="http://www.w3.org/1999/xlink" x="0px" y="0px"
	 viewBox="0 0 512 512" style="enable-background:new 0 0 512 512;" xml:space="preserve">
<path style="fill:#6CB531;" d="M469.779,503.983H42.221c-18.891,0-34.205-15.314-34.205-34.205V42.221
	c0-18.891,15.314-34.205,34.205-34.205h427.557c18.891,0,34.205,15.314,34.205,34.205v427.557
	C503.983,488.669,488.669,503.983,469.779,503.983z"/>
<path style="fill:#539E31;" d="M42.221,452.676V8.017c-18.891,0-34.205,15.314-34.205,34.205v427.557
	c0,18.891,15.314,34.205,34.205,34.205h427.557c18.891,0,34.205-15.314,34.205-34.205H59.324
	C49.878,469.779,42.221,462.121,42.221,452.676z"/>
<g>
	<rect x="110.63" y="84.977" style="fill:#FFFFFF;" width="68.409" height="59.858"/>
	<polygon style="fill:#FFFFFF;" points="392.818,324.409 341.511,324.409 332.96,238.901 332.96,84.977 401.37,84.977 
		401.37,238.898 	"/>
	<rect x="341.511" y="367.165" style="fill:#FFFFFF;" width="51.307" height="59.858"/>
	<path style="fill:#FFFFFF;" d="M264.551,358.614v-145.37h34.205v-42.756h-34.205V84.977h-59.858v85.511H110.63v256.534h68.409
		V213.244h25.653v153.921c0,33.059,26.799,59.858,59.858,59.858h42.756v-51.307h-25.653
		C272.208,375.716,264.551,368.06,264.551,358.614z"/>
</g>
<path d="M469.779,0h-76.96c-4.428,0-8.017,3.588-8.017,8.017s3.588,8.017,8.017,8.017h76.96c14.441,0,26.188,11.747,26.188,26.188
	v427.557c0,14.441-11.747,26.188-26.188,26.188H42.221c-14.44,0-26.188-11.747-26.188-26.188V42.221
	c0-14.441,11.748-26.188,26.188-26.188h316.393c4.428,0,8.017-3.588,8.017-8.017S363.042,0,358.614,0H42.221
	C18.941,0,0,18.941,0,42.221v427.557C0,493.059,18.941,512,42.221,512h427.557c23.28,0,42.221-18.941,42.221-42.221V42.221
	C512,18.941,493.059,0,469.779,0z"/>
<path d="M110.63,152.852h68.409c4.427,0,8.017-3.588,8.017-8.017V84.977c0-4.428-3.589-8.017-8.017-8.017H110.63
	c-4.427,0-8.017,3.588-8.017,8.017v59.858C102.614,149.264,106.203,152.852,110.63,152.852z M118.647,92.994h52.376v43.825h-52.376
	V92.994z"/>
<path d="M409.386,238.898V84.977c0-4.428-3.588-8.017-8.017-8.017H332.96c-4.428,0-8.017,3.588-8.017,8.017v153.924
	c0,0.266,0.014,0.532,0.04,0.797l8.551,85.508c0.41,4.098,3.858,7.219,7.977,7.219h51.307c4.12,0,7.567-3.121,7.977-7.219
	l8.551-85.512C409.372,239.43,409.386,239.164,409.386,238.898z M393.353,238.498l-7.789,77.895h-36.798l-7.789-77.891V92.994
	h52.376V238.498z"/>
<path d="M392.818,359.148h-51.307c-4.428,0-8.017,3.588-8.017,8.017v59.858c0,4.428,3.588,8.017,8.017,8.017h51.307
	c4.428,0,8.017-3.588,8.017-8.017v-59.858C400.835,362.737,397.247,359.148,392.818,359.148z M384.802,419.006h-35.273v-43.825
	h35.273V419.006z"/>
<path d="M264.551,435.04h42.756c4.428,0,8.017-3.588,8.017-8.017v-51.307c0-4.428-3.588-8.017-8.017-8.017h-25.653
	c-5.01,0-9.086-4.076-9.086-9.086V221.261h26.188c4.428,0,8.017-3.588,8.017-8.017v-42.756c0-4.428-3.588-8.017-8.017-8.017h-26.188
	V84.977c0-4.428-3.588-8.017-8.017-8.017h-59.858c-4.427,0-8.017,3.588-8.017,8.017v77.495H110.63c-4.427,0-8.017,3.588-8.017,8.017
	v188.125c0,4.428,3.589,8.017,8.017,8.017c4.427,0,8.017-3.588,8.017-8.017V178.505h86.046c4.427,0,8.017-3.588,8.017-8.017V92.994
	h43.825v77.495c0,4.428,3.588,8.017,8.017,8.017h26.188v26.722h-26.188c-4.428,0-8.017,3.588-8.017,8.017v145.37
	c0,13.851,11.268,25.119,25.119,25.119h17.637v35.273h-34.739c-28.585,0-51.841-23.256-51.841-51.841V213.244
	c0-4.428-3.589-8.017-8.017-8.017H179.04c-4.427,0-8.017,3.588-8.017,8.017v205.762h-52.376v-26.188
	c0-4.428-3.589-8.017-8.017-8.017c-4.427,0-8.017,3.588-8.017,8.017v34.205c0,4.428,3.589,8.017,8.017,8.017h68.409
	c4.427,0,8.017-3.588,8.017-8.017V221.261h9.62v145.904C196.676,404.591,227.125,435.04,264.551,435.04z"/>
<g>
</g>
<g>
</g>
<g>
</g>
<g>
</g>
<g>
</g>
<g>
</g>
<g>
</g>
<g>
</g>
<g>
</g>
<g>
</g>
<g>
</g>
<g>
</g>
<g>
</g>
<g>
</g>
<g>
</g>
</svg>
