<?xml version="1.0" ?><!DOCTYPE svg  PUBLIC '-//W3C//DTD SVG 1.1//EN'  'http://www.w3.org/Graphics/SVG/1.1/DTD/svg11.dtd'><svg height="512px" style="enable-background:new 0 0 512 512;" version="1.1" viewBox="0 0 512 512" width="512px" xml:space="preserve" xmlns="http://www.w3.org/2000/svg" xmlns:xlink="http://www.w3.org/1999/xlink"><g id="_x32_90-scribd"><g><g><path d="M110.163,252.806c-15.669-18.493-24.039-44.673-24.136-77.765     c0-97.714,73.188-149.004,162.728-149.004c95.961-1.557,152.604,47.69,179.37,68.712l-49.149,70.172l-36.303-23.943     l26.181-37.566c-35.524-23.359-77.276-35.524-119.71-34.844C199.8,67.789,140.431,95.041,140.431,142.73     c0,18.199,10.901,20.146,27.835,15.182c22.677-5.159,40.779,0.583,54.307,13.626c25.695,23.65,22.58,65.791-0.681,89.442     C193.474,289.691,138.971,287.55,110.163,252.806L110.163,252.806z M419.364,258.547c-15.085-18.297-37.86-28.613-61.509-27.834     c-37.08-1.947-69.198,27.25-68.614,65.404c-0.681,16.35,5.84,32.115,17.908,43.113c13.723,13.528,32.116,19.175,54.793,14.015     c16.936-4.963,27.836-3.016,27.836,15.184c0,4.184-0.487,8.272-1.361,12.359c-16.255,39.807-57.909,62.678-118.155,62.678     c-50.51,0.196-99.66-15.96-140.244-46.034l32.799-38.346l-34.648-26.669l-59.173,69.881l14.988,13.431     c51.096,45.551,117.18,70.561,185.599,70.27c50.026,0,91.877-10.219,130.028-42.921     C455.18,393.051,452.359,297.867,419.364,258.547L419.364,258.547z" style="fill:#00858E;"/></g></g></g><g id="Layer_1"/></svg>